HIERARCHY
ROOT Hips
{
  OFFSET -119.083 15.6391 118.737
  CHANNELS 6 Xposition Yposition Zposition Zrotation Xrotation Yrotation
  JOINT ToSpine
  {
    OFFSET -0.0105055 1.38907 -7.13956
    CHANNELS 3 Zrotation Xrotation Yrotation
    JOINT Spine
    {
      OFFSET 0.0105055 10 1
      CHANNELS 3 Zrotation Xrotation Yrotation
      JOINT Spine1
      {
        OFFSET 0 12 1.60637
        CHANNELS 3 Zrotation Xrotation Yrotation
        JOINT Neck
        {
          OFFSET 0 27 2.26658
          CHANNELS 3 Zrotation Xrotation Yrotation
          JOINT Head
          {
            OFFSET 0 9 2.12705
            CHANNELS 3 Zrotation Xrotation Yrotation
            End Site
            {
              OFFSET 0 11 2
            }
          }
        }
        JOINT LeftShoulder
        {
          OFFSET 8 19.6109 2.86452
          CHANNELS 3 Zrotation Xrotation Yrotation
          JOINT LeftArm
          {
            OFFSET 12 1 0.681055
            CHANNELS 3 Zrotation Xrotation Yrotation
            JOINT LeftForeArm
            {
              OFFSET 19 0 -1.52608
              CHANNELS 3 Zrotation Xrotation Yrotation
              JOINT LeftHand
              {
                OFFSET 23 0 0
                CHANNELS 3 Zrotation Xrotation Yrotation
                End Site
                {
                  OFFSET 10 0 0
                }
              }
            }
          }
        }
        JOINT RightShoulder
        {
          OFFSET -8 19.6109 2.86452
          CHANNELS 3 Zrotation Xrotation Yrotation
          JOINT RightArm
          {
            OFFSET -12 1 0.681055
            CHANNELS 3 Zrotation Xrotation Yrotation
            JOINT RightForeArm
            {
              OFFSET -19 0 -1.52608
              CHANNELS 3 Zrotation Xrotation Yrotation
              JOINT RightHand
              {
                OFFSET -23 0 0
                CHANNELS 3 Zrotation Xrotation Yrotation
                End Site
                {
                  OFFSET -10 0 0
                }
              }
            }
          }
        }
      }
    }
  }
  JOINT LeftUpLeg
  {
    OFFSET 9 -7.17245 0
    CHANNELS 3 Zrotation Xrotation Yrotation
    JOINT LeftLeg
    {
      OFFSET 0 -44.1113 0
      CHANNELS 3 Zrotation Xrotation Yrotation
      JOINT LeftFoot
      {
        OFFSET 0 -36.1829 0
        CHANNELS 3 Zrotation Xrotation Yrotation
        JOINT LeftToeBase
        {
          OFFSET 0 -4.84184 13
          CHANNELS 3 Zrotation Xrotation Yrotation
          End Site
          {
            OFFSET 0 1 6
          }
        }
      }
    }
  }
  JOINT RightUpLeg
  {
    OFFSET -9 -7.17245 0
    CHANNELS 3 Zrotation Xrotation Yrotation
    JOINT RightLeg
    {
      OFFSET 0 -44.0551 0
      CHANNELS 3 Zrotation Xrotation Yrotation
      JOINT RightFoot
      {
        OFFSET 0 -36.1469 0
        CHANNELS 3 Zrotation Xrotation Yrotation
        JOINT RightToeBase
        {
          OFFSET 0 -4.92256 13
          CHANNELS 3 Zrotation Xrotation Yrotation
          End Site
          {
            OFFSET 0 1 6
          }
        }
      }
    }
  }
}
MOTION
Frames:	14
Frame Time:	0.0333333
-119.09 15.6382 118.721 77.822 -1.69638 -86.4756 0 0 0 18.873 -0.362607 -5.54724 -28.0637 10.2209 0.740422 17.5088 -52.8362 14.0285 -4.69012 14.4133 9.50738 -12.5023 2.8009 -10.7281 -27.8053 -14.1423 18.8426 44.5916 -53.228 -129.095 6.8033 0.203591 3.41642 15.5095 6.46684 24.9004 20.8793 -23.0315 -16.525 -19.9265 -32.9899 146.345 -5.59449 -0.0294173 0.598657 6.82036 9.72358 11.8668 -2.13873 21.2081 -4.45681 4.40436 -12.1122 0.46735 0.821517 -2.63392 -2.99786 -12.8351 12.7284 -20.9344 1.53027 21.4816 7.0809 -6.48697 -10.0526 -0.571598 4.69929 -17.6422 -2.19463 
-119.093 15.6395 118.703 77.8458 -1.7796 -86.4565 0 0 0 18.6967 -0.268606 -5.56964 -27.9655 10.045 0.66708 17.2498 -52.5806 13.8413 -4.61115 14.071 9.43183 -12.564 2.80557 -10.7104 -27.4133 -14.2462 18.9854 44.1006 -52.8766 -129.447 6.90165 0.182931 3.03083 15.5236 6.49514 25.0032 20.7186 -22.9683 -16.6682 -19.8983 -32.896 146.318 -5.54237 -0.00911438 0.222116 6.76357 9.69002 11.7851 -2.08165 21.2431 -4.71262 3.65014 -12.1336 0.388191 0.835235 -2.18183 -3.14345 -12.8647 12.6715 -21.0413 1.52643 21.5096 7.06954 -6.9038 -9.85251 -0.591946 4.82596 -18.1281 -2.44999 
-119.045 15.739 118.731 78.8511 -2.569 -86.6687 0 0 0 17.5816 -0.613985 -5.52977 -27.8813 9.21645 0.53215 19.2475 -51.8867 14.5487 -5.99971 13.9131 10.2244 -11.814 2.68736 -10.605 -28.0852 -13.6636 19.5776 44.1705 -52.8659 -129.374 7.89534 0.21079 3.03774 16.1341 6.7253 25.2831 20.3733 -22.7622 -16.6595 -19.9733 -32.9876 146.276 -6.13671 0.0641903 -1.21111 5.6216 8.6276 11.1758 -2.03049 21.1135 -3.96558 3.3367 -11.8412 0.346253 0.683997 -2.74933 -2.33485 -14.0583 11.0845 -22.7347 1.35698 22.5234 9.04985 -8.86197 -9.08373 -0.706119 5.50194 -21.1923 -3.93224 
-119.059 15.9913 118.554 78.7735 -2.54232 -87.3523 0 0 0 17.1846 0.97341 -5.5887 -27.8135 7.78815 0.463797 22.1035 -51.6857 15.6177 -7.60856 14.0412 11.1177 -10.3158 2.54525 -10.875 -28.0892 -14.3786 20.5408 41.832 -52.8917 -131.699 6.08311 0.138238 2.61145 17.2476 7.00179 25.1884 19.6064 -22.9697 -16.5681 -19.9303 -32.8922 146.27 -6.05857 0.0517412 -0.977146 5.75277 8.82131 11.6315 -2.37097 20.8037 -3.97882 3.56302 -11.3926 0.35487 0.726547 -2.88884 -2.5035 -13.9889 10.3838 -21.776 0.984705 23.2844 8.75598 -8.14099 -9.60791 -0.685496 5.31647 -20.439 -4.01104 
-119.053 15.9559 118.564 78.7979 -2.55984 -87.3316 0 0 0 17.1803 0.712723 -5.54415 -27.8084 8.08134 0.524475 21.7643 -51.6061 15.473 -7.26597 13.5987 10.9552 -10.2613 2.52136 -10.7829 -28.396 -14.3756 20.4552 41.7345 -52.895 -131.798 5.93176 0.128936 2.49028 16.9618 6.90158 25.0961 19.9923 -23.1004 -16.2322 -19.944 -32.9135 146.265 -5.95473 0.0469461 -0.902595 5.74127 8.79278 11.6045 -2.41386 20.8218 -3.94537 4.29884 -11.1869 0.420681 0.766567 -3.42166 -2.58067 -13.999 10.4435 -21.8866 1.03697 23.1653 8.76167 -8.54558 -9.43098 -0.706228 5.58721 -21.5626 -4.08136 
-119.057 15.9497 118.594 78.8914 -2.56244 -87.3298 0 0 0 17.3027 0.778425 -5.48905 -27.9111 7.81226 0.535373 21.8731 -51.7432 15.5519 -7.38847 14.0823 11.0242 -10.4464 2.55866 -10.8564 -28.2951 -13.9836 20.2224 41.7556 -52.8066 -131.744 5.95124 0.134757 2.59354 16.7938 6.8089 24.9036 20.5178 -22.9098 -15.9827 -20.1094 -33.1867 146.221 -5.82748 0.0557511 -1.0951 5.66896 8.60285 11.4703 -2.25813 21.0033 -3.77599 3.56893 -11.5253 0.360018 0.728303 -2.92593 -2.50539 -13.9888 10.3597 -21.7655 1.02125 23.0991 8.63506 -8.51451 -9.37564 -0.699465 5.42395 -20.8412 -3.86425 
-119.087 15.9529 118.58 78.8681 -2.58384 -87.2549 0 0 0 17.1531 1.16054 -5.46589 -27.6989 7.14198 0.446573 21.9571 -51.0252 15.3519 -7.75589 13.801 11.1545 -10.5879 2.65865 -11.3074 -28.7711 -13.3346 20.717 42.8959 -52.7861 -130.601 7.21584 0.16555 2.62261 16.1542 6.57647 24.6483 22.9632 -22.0945 -15.2696 -21.4124 -34.9854 145.63 -5.44287 0.0531033 -1.11684 5.69853 8.73611 11.5694 -2.38823 20.7557 -3.88414 4.1279 -11.1967 0.404688 0.833728 -2.9562 -2.9909 -14.0258 10.3707 -21.7952 1.03969 23.178 8.62966 -8.33403 -9.40503 -0.686752 5.67969 -21.8336 -3.73755 
-119.072 15.9572 118.567 78.9656 -2.53779 -87.3124 0 0 0 17.1473 1.19585 -5.35085 -27.5726 6.92404 0.472731 21.8542 -51.0402 15.2594 -7.84318 14.0231 11.135 -10.6387 2.69485 -11.4687 -28.9019 -12.9352 20.6388 43.0537 -52.5684 -130.363 7.61616 0.1836 2.75856 15.7671 6.44787 24.5356 23.7984 -21.8052 -15.0444 -21.8491 -35.5459 145.406 -5.56363 0.0612062 -1.25938 5.72047 8.55936 11.5413 -2.30693 20.93 -3.80065 3.5872 -11.5164 0.362 0.67551 -2.87605 -2.27022 -14.0065 10.2635 -21.9091 1.05511 23.1271 8.88535 -8.64988 -9.31985 -0.706413 5.38683 -20.7149 -3.9676 
-119.084 15.941 118.601 78.8441 -2.5123 -87.389 0 0 0 17.2491 1.40967 -5.33885 -27.5816 6.81823 0.491507 21.8127 -50.7269 15.2388 -7.99918 13.5606 11.2384 -10.7983 2.72378 -11.508 -28.6748 -13.1076 20.7227 42.6009 -52.3669 -130.735 7.48319 0.167934 2.56784 15.71 6.39734 24.386 24.0124 -21.6244 -14.875 -22.1787 -35.9547 145.227 -5.65161 0.0741949 -1.50305 5.73724 8.77048 11.5932 -2.36672 20.8161 -3.82553 3.40388 -11.4315 0.340787 0.729136 -2.77871 -2.53932 -14.0183 10.3631 -21.7378 1.02719 23.1311 8.95945 -8.62086 -9.14914 -0.691033 5.68719 -21.9373 -3.97826 
-119.082 16.0059 118.458 78.7065 -2.33848 -87.317 0 0 0 16.8694 1.90355 -5.37632 -26.8973 6.54237 0.300951 21.8867 -50.7004 15.2351 -8.21404 13.4202 11.2896 -11.017 2.77656 -11.6327 -28.4142 -13.38 20.9917 42.0564 -52.2573 -131.235 7.30214 0.161241 2.52412 15.6618 6.37501 24.3451 24.1023 -21.6342 -14.8002 -22.5609 -36.4503 145.036 -5.70682 0.0877742 -1.76162 6.14719 8.7801 11.9097 -2.38344 21.0179 -4.19139 3.33102 -11.5309 0.336382 0.724677 -2.79976 -2.51424 -13.6229 10.4985 -21.3973 1.05185 23.0139 8.50224 -8.63892 -9.23091 -0.699358 5.34099 -20.5498 -4.04132 
-119.075 15.9449 118.584 78.9373 -2.60056 -87.1975 0 0 0 16.9205 1.44113 -5.2966 -27.1886 6.72743 0.433024 21.4819 -50.7964 15.0348 -7.94403 13.5259 11.0936 -11.0647 2.79432 -11.6926 -28.428 -13.1029 20.6791 41.8599 -52.1836 -131.402 7.02147 0.169879 2.72344 15.8466 6.39926 24.2457 23.7995 -21.6853 -15.0073 -22.7355 -36.8561 145.061 -5.80571 0.103408 -2.0373 5.6364 8.60624 11.4248 -2.22527 20.8676 -3.7673 3.21828 -11.5943 0.326767 0.734594 -2.5743 -2.60642 -14.1043 10.344 -22.0401 1.06563 23.1409 9.08946 -8.63956 -9.20802 -0.70162 5.54128 -21.3806 -4.09827 
-119.08 15.9463 118.581 78.8943 -2.57233 -87.2481 0 0 0 16.811 1.59977 -5.23333 -26.8828 6.60922 0.421428 21.0183 -50.8035 14.8692 -7.84878 13.4939 11.0096 -11.3413 2.84687 -11.7694 -28.4217 -12.9644 20.74 41.7938 -52.0913 -131.433 7.11878 0.169742 2.72927 15.6466 6.33512 24.1931 24.0917 -21.3765 -14.9636 -23.2437 -37.4737 144.779 -6.09425 0.123583 -2.32276 5.70184 8.69408 11.5253 -2.32825 20.8036 -3.895 3.37504 -11.4223 0.337639 0.798134 -2.5294 -2.90715 -14.0918 10.3583 -22.0531 1.05742 23.17 9.15586 -8.66072 -9.1958 -0.701209 5.84274 -22.6098 -4.11012 
-119.064 15.971 118.559 78.9773 -2.53311 -87.221 0 0 0 16.6715 1.70937 -5.1813 -26.5927 6.4105 0.391552 20.9216 -50.8024 14.7715 -7.87924 13.526 10.9592 -11.4091 2.87087 -11.8464 -28.5047 -13.1307 20.6508 41.6576 -52.0845 -131.566 6.76903 0.154762 2.61777 15.4587 6.24876 24.0332 24.5272 -21.1894 -14.763 -23.8327 -38.1831 144.451 -6.12269 0.14343 -2.68061 5.73519 8.55698 11.5102 -2.26391 20.8537 -3.84898 3.39344 -11.5892 0.344501 0.720177 -2.69526 -2.51492 -13.999 10.2516 -21.9154 1.04551 23.2096 8.89982 -8.39528 -9.47933 -0.697266 5.73975 -22.1483 -3.97298 
-119.06 15.9386 118.608 78.9077 -2.53165 -87.1718 0 0 0 16.7396 1.6004 -5.16344 -26.5083 6.59145 0.405908 20.1297 -51 14.4868 -7.33312 13.8133 10.6608 -11.6569 2.90423 -11.8406 -28.3022 -13.063 20.5687 41.2281 -51.9075 -131.927 6.47846 0.151943 2.6835 15.1586 6.17707 24.0542 24.8919 -20.9444 -14.7313 -24.3915 -38.79 144.103 -6.29556 0.167715 -3.04917 5.69054 8.67654 11.4267 -2.26267 20.7576 -3.6945 3.72026 -11.5185 0.375233 0.778481 -2.9178 -2.74106 -14.0309 10.3797 -21.9614 1.06069 23.1677 8.86784 -8.4103 -9.34074 -0.688302 5.77918 -22.2555 -3.8152 
